<svg xmlns="http://www.w3.org/2000/svg" viewBox="0 0 84.263 84.263" role="img" aria-hidden="true">
  <path fill="#32BCAD" d="M64.106 62.939a11.503 11.503 0 0 1-8.156-3.377L44.173 47.784a2.186 2.186 0 0 0-3.094 0L29.259 59.604a11.503 11.503 0 0 1-8.156 3.377h-2.321l14.916 14.915a11.929 11.929 0 0 0 16.869 0L65.525 62.94h-1.419Z"/>
  <path fill="#32BCAD" d="M21.103 21.282c3.08 0 5.978 1.2 8.156 3.377L41.08 36.481a2.188 2.188 0 0 0 3.094 0L55.95 24.702a11.503 11.503 0 0 1 8.156-3.377h1.419L50.567 6.367a11.929 11.929 0 0 0-16.869 0L18.783 21.282h2.32Z"/>
  <path fill="#32BCAD" d="m77.897 33.698-9.039-9.04a1.738 1.738 0 0 1-.642.13h-4.11c-2.125 0-4.205.862-5.706 2.364L46.624 38.93a5.637 5.637 0 0 1-3.997 1.653 5.624 5.624 0 0 1-3.997-1.652L26.81 27.11a8.047 8.047 0 0 0-5.706-2.364H16.05a1.705 1.705 0 0 1-.607-.122l-9.075 9.075a11.928 11.928 0 0 0 0 16.869l9.075 9.075c.19-.072.392-.122.607-.122h5.054c2.125 0 4.205-.862 5.706-2.364l11.82-11.82a5.657 5.657 0 0 1 7.995.001L58.4 57.115a8.048 8.048 0 0 0 5.706 2.364h4.11c.228 0 .443.05.642.13l9.04-9.04a11.928 11.928 0 0 0 0-16.869Z"/>
</svg>
